<svg xmlns="http://www.w3.org/2000/svg" viewBox="0 0 808 352" class="svgbob">
    <style>
		:root {
			--stroke-color: black;
			--fill-color: none;
			--text-color: black;
		}

		@media (prefers-color-scheme: dark) {
			:root {
				--stroke-color: white;
				--fill-color: black;
				--text-color: white;
			}
		}

		svg { 
			width: 100%; 
			height: auto;
		}

		.svgbob line, .svgbob path, .svgbob circle, .svgbob rect, .svgbob polygon {
			stroke: var(--stroke-color);
			stroke-width: 2;
			stroke-opacity: 1;
			fill-opacity: 1;
			stroke-linecap: round;
        	stroke-linejoin: miter; 
		} 

		.svgbob text {
			white-space: pre; 
			fill: var(--text-color);
			font-family: Iosevka Fixed, monospace; 
			font-size: 14px; 
		} 

		/* .svgbob rect.backdrop {  */
		/* 	stroke: none;  */
		/* 	fill: var(--fill-color); */
		/* } */

        .svgbob .broken { 
			stroke-dasharray: 8; 
		} 

		.svgbob .filled { 
			fill: var(--stroke-color);
		} 

		.svgbob .bg_filled { 
			fill: var(--fill-color);
			stroke-width: 1; 
		} 

		.svgbob .nofill { 
			fill: var(--fill-color);
		} 

		.svgbob .end_marked_arrow { 
			marker-end: url(#arrow); 
		} 

		.svgbob .start_marked_arrow { 
			marker-start: url(#arrow); 
		}
        
		.svgbob .end_marked_diamond { 
			marker-end: url(#diamond); 
		} 

		.svgbob .start_marked_diamond {
			marker-start: url(#diamond); 
		} 

		.svgbob .end_marked_circle { 
			marker-end: url(#circle); 
		}

        .svgbob .start_marked_circle { 
			marker-start: url(#circle); 
		} 

		.svgbob .end_marked_open_circle { 
			marker-end: url(#open_circle); 
		} 

		.svgbob .start_marked_open_circle { 
			marker-start: url(#open_circle); 
		} 

		.svgbob .end_marked_big_open_circle { 
			marker-end: url(#big_open_circle); 
		} 

		.svgbob .start_marked_big_open_circle { 
			marker-start: url(#big_open_circle); 
		}
	</style>
    <defs>
        <marker id="arrow" viewBox="-2 -2 8 8" refX="4" refY="2" markerWidth="7" markerHeight="7"
            orient="auto-start-reverse">
            <polygon points="0,0 0,4 4,2 0,0"></polygon>
        </marker>
        <marker id="diamond" viewBox="-2 -2 8 8" refX="4" refY="2" markerWidth="7" markerHeight="7"
            orient="auto-start-reverse">
            <polygon points="0,2 2,0 4,2 2,4 0,2"></polygon>
        </marker>
        <marker id="circle" viewBox="0 0 8 8" refX="4" refY="4" markerWidth="7" markerHeight="7"
            orient="auto-start-reverse">
            <circle cx="4" cy="4" r="2" class="filled"></circle>
        </marker>
        <marker id="open_circle" viewBox="0 0 8 8" refX="4" refY="4" markerWidth="7"
            markerHeight="7" orient="auto-start-reverse">
            <circle cx="4" cy="4" r="2" class="bg_filled"></circle>
        </marker>
        <marker id="big_open_circle" viewBox="0 0 8 8" refX="4" refY="4" markerWidth="7"
            markerHeight="7" orient="auto-start-reverse">
            <circle cx="4" cy="4" r="3" class="bg_filled"></circle>
        </marker>
    </defs>
    <line x1="554" y1="187" x2="594" y2="187" class="solid"></line>
    <line x1="476" y1="328" x2="492" y2="328" class="solid"></line>
    <g>
        <line x1="80" y1="16" x2="120" y2="16" class="solid"></line>
        <line x1="80" y1="16" x2="76" y2="24" class="solid"></line>
        <line x1="76" y1="24" x2="76" y2="80" class="broken"></line>
        <line x1="80" y1="16" x2="96" y2="48" class="solid"></line>
        <line x1="84" y1="24" x2="84" y2="64" class="broken"></line>
        <line x1="120" y1="16" x2="136" y2="48" class="solid"></line>
        <line x1="96" y1="48" x2="136" y2="48" class="solid"></line>
        <line x1="96" y1="48" x2="64" y2="112" class="solid"></line>
        <line x1="136" y1="48" x2="104" y2="112" class="solid"></line>
        <line x1="64" y1="112" x2="104" y2="112" class="solid"></line>
        <line x1="64" y1="112" x2="112" y2="208" class="solid"></line>
        <line x1="68" y1="120" x2="68" y2="176" class="broken"></line>
        <line x1="104" y1="112" x2="128" y2="160" class="solid"></line>
        <line x1="76" y1="136" x2="76" y2="192" class="broken"></line>
        <line x1="84" y1="152" x2="84" y2="208" class="broken"></line>
        <line x1="92" y1="168" x2="92" y2="224" class="broken"></line>
        <line x1="100" y1="184" x2="100" y2="288" class="broken"></line>
        <line x1="108" y1="200" x2="108" y2="272" class="broken"></line>
    </g>
    <g>
        <line x1="280" y1="16" x2="320" y2="16" class="solid"></line>
        <line x1="280" y1="16" x2="276" y2="24" class="solid"></line>
        <line x1="276" y1="24" x2="276" y2="64" class="broken"></line>
        <line x1="280" y1="16" x2="348" y2="152" class="solid"></line>
        <line x1="284" y1="24" x2="284" y2="80" class="broken"></line>
        <line x1="320" y1="16" x2="448" y2="272" class="solid"></line>
        <line x1="292" y1="40" x2="292" y2="96" class="broken"></line>
        <line x1="300" y1="56" x2="300" y2="160" class="broken"></line>
        <line x1="308" y1="72" x2="308" y2="144" class="broken"></line>
        <line x1="316" y1="88" x2="316" y2="144" class="broken"></line>
        <line x1="324" y1="104" x2="324" y2="160" class="broken"></line>
        <line x1="332" y1="120" x2="332" y2="176" class="broken"></line>
        <line x1="340" y1="136" x2="340" y2="192" class="broken"></line>
        <line x1="344" y1="144" x2="360" y2="176" class="solid"></line>
        <line x1="348" y1="152" x2="348" y2="192" class="broken"></line>
        <line x1="360" y1="176" x2="400" y2="176" class="solid"></line>
        <line x1="408" y1="160" x2="384" y2="208" class="solid"></line>
        <line x1="448" y1="272" x2="472" y2="320" class="solid"></line>
        <line x1="312" y1="144" x2="264" y2="240" class="solid"></line>
        <line x1="312" y1="144" x2="344" y2="208" class="solid"></line>
        <line x1="360" y1="176" x2="344" y2="208" class="solid"></line>
        <line x1="344" y1="208" x2="384" y2="208" class="solid"></line>
        <line x1="144" y1="144" x2="184" y2="144" class="solid"></line>
        <line x1="144" y1="144" x2="140" y2="152" class="solid"></line>
        <line x1="140" y1="152" x2="140" y2="208" class="broken"></line>
        <line x1="144" y1="144" x2="160" y2="176" class="solid"></line>
        <line x1="148" y1="152" x2="148" y2="192" class="broken"></line>
        <line x1="184" y1="144" x2="248" y2="272" class="solid"></line>
        <line x1="160" y1="176" x2="200" y2="176" class="solid"></line>
        <line x1="208" y1="160" x2="120" y2="336" class="solid"></line>
        <line x1="160" y1="176" x2="96" y2="304" class="solid"></line>
        <line x1="248" y1="272" x2="280" y2="336" class="solid"></line>
        <line x1="328" y1="192" x2="304" y2="240" class="solid"></line>
        <line x1="264" y1="240" x2="304" y2="240" class="solid"></line>
        <line x1="264" y1="240" x2="296" y2="304" class="solid"></line>
        <line x1="268" y1="248" x2="268" y2="304" class="broken"></line>
        <line x1="304" y1="240" x2="336" y2="304" class="solid"></line>
        <line x1="276" y1="264" x2="276" y2="320" class="broken"></line>
        <line x1="284" y1="280" x2="284" y2="320" class="broken"></line>
        <line x1="296" y1="304" x2="336" y2="304" class="solid"></line>
        <line x1="296" y1="304" x2="280" y2="336" class="solid"></line>
        <line x1="336" y1="304" x2="320" y2="336" class="solid"></line>
        <line x1="280" y1="336" x2="320" y2="336" class="solid"></line>
        <line x1="72" y1="288" x2="64" y2="304" class="solid"></line>
        <line x1="64" y1="304" x2="80" y2="336" class="solid"></line>
        <line x1="96" y1="304" x2="80" y2="336" class="solid"></line>
        <line x1="80" y1="336" x2="120" y2="336" class="solid"></line>
    </g>
    <g>
        <line x1="480" y1="16" x2="520" y2="16" class="solid"></line>
        <line x1="480" y1="16" x2="476" y2="24" class="solid"></line>
        <line x1="476" y1="24" x2="476" y2="80" class="broken"></line>
        <line x1="480" y1="16" x2="548" y2="152" class="solid"></line>
        <line x1="484" y1="24" x2="484" y2="80" class="broken"></line>
        <line x1="520" y1="16" x2="584" y2="144" class="solid"></line>
        <line x1="492" y1="40" x2="492" y2="96" class="broken"></line>
        <line x1="500" y1="56" x2="500" y2="112" class="broken"></line>
        <line x1="508" y1="72" x2="508" y2="128" class="broken"></line>
        <line x1="516" y1="88" x2="516" y2="144" class="broken"></line>
        <line x1="524" y1="104" x2="524" y2="160" class="broken"></line>
        <line x1="532" y1="120" x2="532" y2="224" class="broken"></line>
        <line x1="540" y1="136" x2="540" y2="208" class="broken"></line>
        <line x1="544" y1="144" x2="554" y2="165" class="solid"></line>
        <line x1="548" y1="152" x2="548" y2="192" class="broken"></line>
        <line x1="554" y1="165" x2="594" y2="165" class="solid"></line>
        <line x1="584" y1="144" x2="594" y2="165" class="solid"></line>
    </g>
    <g>
        <line x1="680" y1="16" x2="720" y2="16" class="solid"></line>
        <line x1="680" y1="16" x2="676" y2="24" class="solid"></line>
        <line x1="676" y1="24" x2="676" y2="80" class="broken"></line>
        <line x1="680" y1="16" x2="748" y2="152" class="solid"></line>
        <line x1="684" y1="24" x2="684" y2="80" class="broken"></line>
        <line x1="720" y1="16" x2="784" y2="144" class="solid"></line>
        <line x1="692" y1="40" x2="692" y2="96" class="broken"></line>
        <line x1="700" y1="56" x2="700" y2="112" class="broken"></line>
        <line x1="708" y1="72" x2="708" y2="128" class="broken"></line>
        <line x1="716" y1="88" x2="716" y2="144" class="broken"></line>
        <line x1="724" y1="104" x2="724" y2="160" class="broken"></line>
        <line x1="732" y1="120" x2="732" y2="176" class="broken"></line>
        <line x1="740" y1="136" x2="740" y2="192" class="broken"></line>
        <line x1="744" y1="144" x2="760" y2="176" class="solid"></line>
        <line x1="748" y1="152" x2="748" y2="192" class="broken"></line>
        <line x1="784" y1="144" x2="800" y2="176" class="solid"></line>
        <line x1="760" y1="176" x2="800" y2="176" class="solid"></line>
        <line x1="800" y1="176" x2="784" y2="208" class="solid"></line>
        <line x1="680" y1="80" x2="664" y2="112" class="solid"></line>
        <line x1="680" y1="80" x2="744" y2="208" class="solid"></line>
        <line x1="664" y1="112" x2="696" y2="112" class="solid"></line>
        <line x1="664" y1="112" x2="728" y2="240" class="solid"></line>
        <line x1="668" y1="120" x2="668" y2="176" class="broken"></line>
        <line x1="676" y1="136" x2="676" y2="192" class="broken"></line>
        <line x1="684" y1="152" x2="684" y2="208" class="broken"></line>
        <line x1="692" y1="168" x2="692" y2="224" class="broken"></line>
        <line x1="700" y1="184" x2="700" y2="240" class="broken"></line>
        <line x1="760" y1="176" x2="744" y2="208" class="solid"></line>
        <line x1="708" y1="200" x2="708" y2="256" class="broken"></line>
        <line x1="744" y1="208" x2="784" y2="208" class="solid"></line>
        <line x1="716" y1="216" x2="716" y2="256" class="broken"></line>
        <line x1="752" y1="208" x2="768" y2="240" class="solid"></line>
        <line x1="728" y1="240" x2="768" y2="240" class="solid"></line>
        <line x1="768" y1="240" x2="752" y2="272" class="solid"></line>
        <line x1="648" y1="144" x2="632" y2="176" class="solid"></line>
        <line x1="648" y1="144" x2="712" y2="272" class="solid"></line>
        <line x1="632" y1="176" x2="664" y2="176" class="solid"></line>
        <line x1="632" y1="176" x2="696" y2="304" class="solid"></line>
        <line x1="636" y1="184" x2="636" y2="240" class="broken"></line>
        <line x1="644" y1="200" x2="644" y2="256" class="broken"></line>
        <line x1="652" y1="216" x2="652" y2="272" class="broken"></line>
        <line x1="660" y1="232" x2="660" y2="288" class="broken"></line>
        <line x1="668" y1="248" x2="668" y2="304" class="broken"></line>
        <line x1="728" y1="240" x2="712" y2="272" class="solid"></line>
        <line x1="676" y1="264" x2="676" y2="320" class="broken"></line>
        <line x1="712" y1="272" x2="752" y2="272" class="solid"></line>
        <line x1="684" y1="280" x2="684" y2="320" class="broken"></line>
        <line x1="720" y1="272" x2="736" y2="304" class="solid"></line>
        <line x1="696" y1="304" x2="736" y2="304" class="solid"></line>
        <line x1="736" y1="304" x2="720" y2="336" class="solid"></line>
        <line x1="600" y1="176" x2="664" y2="304" class="solid"></line>
        <line x1="608" y1="160" x2="600" y2="176" class="solid"></line>
        <line x1="664" y1="304" x2="680" y2="336" class="solid"></line>
        <line x1="696" y1="304" x2="680" y2="336" class="solid"></line>
        <line x1="680" y1="336" x2="720" y2="336" class="solid"></line>
    </g>
    <g>
        <line x1="72" y1="32" x2="68" y2="40" class="solid"></line>
        <line x1="68" y1="40" x2="68" y2="96" class="broken"></line>
    </g>
    <g>
        <line x1="272" y1="32" x2="264" y2="48" class="solid"></line>
        <line x1="264" y1="48" x2="296" y2="112" class="solid"></line>
        <line x1="296" y1="112" x2="292" y2="120" class="solid"></line>
        <line x1="292" y1="120" x2="292" y2="176" class="broken"></line>
    </g>
    <g>
        <line x1="472" y1="32" x2="468" y2="40" class="solid"></line>
        <line x1="468" y1="40" x2="468" y2="96" class="broken"></line>
    </g>
    <g>
        <line x1="672" y1="32" x2="668" y2="40" class="solid"></line>
        <line x1="668" y1="40" x2="668" y2="96" class="broken"></line>
    </g>
    <g>
        <line x1="64" y1="48" x2="60" y2="56" class="solid"></line>
        <line x1="60" y1="56" x2="60" y2="160" class="broken"></line>
    </g>
    <g>
        <line x1="464" y1="48" x2="460" y2="56" class="solid"></line>
        <line x1="460" y1="56" x2="460" y2="112" class="broken"></line>
    </g>
    <g>
        <line x1="664" y1="48" x2="660" y2="56" class="solid"></line>
        <line x1="660" y1="56" x2="660" y2="160" class="broken"></line>
    </g>
    <g>
        <line x1="56" y1="64" x2="52" y2="72" class="solid"></line>
        <line x1="52" y1="72" x2="52" y2="144" class="broken"></line>
    </g>
    <g>
        <line x1="456" y1="64" x2="452" y2="72" class="solid"></line>
        <line x1="452" y1="72" x2="452" y2="128" class="broken"></line>
    </g>
    <g>
        <line x1="656" y1="64" x2="652" y2="72" class="solid"></line>
        <line x1="652" y1="72" x2="652" y2="144" class="broken"></line>
    </g>
    <g>
        <line x1="48" y1="80" x2="44" y2="88" class="solid"></line>
        <line x1="44" y1="88" x2="44" y2="144" class="broken"></line>
    </g>
    <g>
        <line x1="448" y1="80" x2="444" y2="88" class="solid"></line>
        <line x1="444" y1="88" x2="444" y2="144" class="broken"></line>
    </g>
    <g>
        <line x1="480" y1="80" x2="432" y2="176" class="solid"></line>
        <line x1="480" y1="80" x2="528" y2="176" class="solid"></line>
        <line x1="528" y1="176" x2="524" y2="184" class="solid"></line>
        <line x1="524" y1="184" x2="524" y2="240" class="broken"></line>
        <line x1="496" y1="128" x2="472" y2="176" class="solid"></line>
        <line x1="432" y1="176" x2="472" y2="176" class="solid"></line>
        <line x1="432" y1="176" x2="480" y2="272" class="solid"></line>
        <line x1="436" y1="184" x2="436" y2="240" class="broken"></line>
        <line x1="472" y1="176" x2="496" y2="224" class="solid"></line>
        <line x1="444" y1="200" x2="444" y2="256" class="broken"></line>
        <line x1="452" y1="216" x2="452" y2="272" class="broken"></line>
        <line x1="460" y1="232" x2="460" y2="288" class="broken"></line>
        <line x1="468" y1="248" x2="468" y2="304" class="broken"></line>
        <line x1="476" y1="264" x2="476" y2="320" class="broken"></line>
    </g>
    <g>
        <line x1="648" y1="80" x2="644" y2="88" class="solid"></line>
        <line x1="644" y1="88" x2="644" y2="144" class="broken"></line>
    </g>
    <g>
        <line x1="40" y1="96" x2="36" y2="104" class="solid"></line>
        <line x1="36" y1="104" x2="36" y2="160" class="broken"></line>
    </g>
    <g>
        <line x1="440" y1="96" x2="436" y2="104" class="solid"></line>
        <line x1="436" y1="104" x2="436" y2="160" class="broken"></line>
    </g>
    <g>
        <line x1="640" y1="96" x2="636" y2="104" class="solid"></line>
        <line x1="636" y1="104" x2="636" y2="160" class="broken"></line>
    </g>
    <g>
        <line x1="32" y1="112" x2="28" y2="120" class="solid"></line>
        <line x1="28" y1="120" x2="28" y2="176" class="broken"></line>
    </g>
    <g>
        <line x1="432" y1="112" x2="428" y2="120" class="solid"></line>
        <line x1="428" y1="120" x2="428" y2="224" class="broken"></line>
    </g>
    <g>
        <line x1="632" y1="112" x2="628" y2="120" class="solid"></line>
        <line x1="628" y1="120" x2="628" y2="224" class="broken"></line>
    </g>
    <g>
        <line x1="24" y1="128" x2="20" y2="136" class="solid"></line>
        <line x1="20" y1="136" x2="20" y2="192" class="broken"></line>
    </g>
    <g>
        <line x1="216" y1="144" x2="248" y2="144" class="solid"></line>
        <line x1="216" y1="144" x2="212" y2="152" class="solid"></line>
        <line x1="212" y1="152" x2="212" y2="192" class="broken"></line>
        <line x1="216" y1="144" x2="248" y2="208" class="solid"></line>
        <line x1="220" y1="152" x2="220" y2="208" class="broken"></line>
        <line x1="248" y1="144" x2="264" y2="176" class="solid"></line>
        <line x1="228" y1="168" x2="228" y2="224" class="broken"></line>
        <line x1="236" y1="184" x2="236" y2="240" class="broken"></line>
        <line x1="264" y1="176" x2="260" y2="184" class="solid"></line>
        <line x1="260" y1="184" x2="260" y2="288" class="broken"></line>
        <line x1="244" y1="200" x2="244" y2="256" class="broken"></line>
    </g>
    <g>
        <line x1="288" y1="128" x2="284" y2="136" class="solid"></line>
        <line x1="284" y1="136" x2="284" y2="192" class="broken"></line>
    </g>
    <g>
        <line x1="424" y1="128" x2="420" y2="136" class="solid"></line>
        <line x1="420" y1="136" x2="420" y2="208" class="broken"></line>
    </g>
    <g>
        <line x1="624" y1="128" x2="620" y2="136" class="solid"></line>
        <line x1="620" y1="136" x2="620" y2="208" class="broken"></line>
    </g>
    <g>
        <line x1="16" y1="144" x2="12" y2="152" class="solid"></line>
        <line x1="12" y1="152" x2="12" y2="192" class="broken"></line>
    </g>
    <g>
        <line x1="48" y1="144" x2="16" y2="208" class="solid"></line>
        <line x1="48" y1="144" x2="96" y2="240" class="solid"></line>
        <line x1="96" y1="240" x2="92" y2="248" class="solid"></line>
        <line x1="92" y1="248" x2="92" y2="304" class="broken"></line>
        <line x1="8" y1="160" x2="0" y2="176" class="solid"></line>
        <line x1="0" y1="176" x2="16" y2="208" class="solid"></line>
        <line x1="16" y1="208" x2="56" y2="208" class="solid"></line>
        <line x1="64" y1="192" x2="56" y2="208" class="solid"></line>
    </g>
    <g>
        <line x1="280" y1="144" x2="276" y2="152" class="solid"></line>
        <line x1="276" y1="152" x2="276" y2="208" class="broken"></line>
    </g>
    <g>
        <line x1="416" y1="144" x2="412" y2="152" class="solid"></line>
        <line x1="412" y1="152" x2="412" y2="192" class="broken"></line>
    </g>
    <g>
        <line x1="616" y1="144" x2="612" y2="152" class="solid"></line>
        <line x1="612" y1="152" x2="612" y2="192" class="broken"></line>
    </g>
    <g>
        <line x1="136" y1="160" x2="132" y2="168" class="solid"></line>
        <line x1="132" y1="168" x2="132" y2="224" class="broken"></line>
    </g>
    <g>
        <line x1="272" y1="160" x2="268" y2="168" class="solid"></line>
        <line x1="268" y1="168" x2="268" y2="224" class="broken"></line>
    </g>
    <g>
        <line x1="128" y1="176" x2="124" y2="184" class="solid"></line>
        <line x1="124" y1="184" x2="124" y2="240" class="broken"></line>
    </g>
    <g>
        <line x1="554" y1="165" x2="554" y2="187" class="solid"></line>
        <line x1="554" y1="187" x2="488" y2="320" class="solid"></line>
        <line x1="594" y1="165" x2="594" y2="187" class="solid"></line>
        <line x1="594" y1="187" x2="528" y2="320" class="solid"></line>
        <line x1="488" y1="320" x2="528" y2="320" class="solid"></line>
    </g>
    <g>
        <line x1="120" y1="192" x2="116" y2="200" class="solid"></line>
        <line x1="116" y1="200" x2="116" y2="256" class="broken"></line>
    </g>
    <g>
        <line x1="256" y1="192" x2="252" y2="200" class="solid"></line>
        <line x1="252" y1="200" x2="252" y2="272" class="broken"></line>
    </g>
    <g>
        <line x1="520" y1="192" x2="516" y2="200" class="solid"></line>
        <line x1="516" y1="200" x2="516" y2="256" class="broken"></line>
    </g>
    <g>
        <line x1="512" y1="208" x2="508" y2="216" class="solid"></line>
        <line x1="508" y1="216" x2="508" y2="272" class="broken"></line>
    </g>
    <g>
        <line x1="504" y1="224" x2="500" y2="232" class="solid"></line>
        <line x1="500" y1="232" x2="500" y2="288" class="broken"></line>
    </g>
    <g>
        <line x1="496" y1="240" x2="492" y2="248" class="solid"></line>
        <line x1="492" y1="248" x2="492" y2="304" class="broken"></line>
    </g>
    <g>
        <line x1="88" y1="256" x2="84" y2="264" class="solid"></line>
        <line x1="84" y1="264" x2="84" y2="320" class="broken"></line>
    </g>
    <g>
        <line x1="488" y1="256" x2="484" y2="264" class="solid"></line>
        <line x1="484" y1="264" x2="484" y2="320" class="broken"></line>
    </g>
    <g>
        <line x1="80" y1="272" x2="76" y2="280" class="solid"></line>
        <line x1="76" y1="280" x2="76" y2="320" class="broken"></line>
    </g>
</svg>

